<?xml version="1.0" encoding="UTF-8" standalone="no"?>
<!-- Created with Inkscape (http://www.inkscape.org/) -->

<svg
   width="153.00607mm"
   height="125.563mm"
   viewBox="0 0 153.00607 125.563"
   version="1.1"
   id="svg5"
   xml:space="preserve"
   inkscape:version="1.2.2 (b0a8486541, 2022-12-01)"
   sodipodi:docname="hamstring_no_text.svg"
   xmlns:inkscape="http://www.inkscape.org/namespaces/inkscape"
   xmlns:sodipodi="http://sodipodi.sourceforge.net/DTD/sodipodi-0.dtd"
   xmlns="http://www.w3.org/2000/svg"
   xmlns:svg="http://www.w3.org/2000/svg"><sodipodi:namedview
     id="namedview7"
     pagecolor="#ffffff"
     bordercolor="#000000"
     borderopacity="0.25"
     inkscape:showpageshadow="2"
     inkscape:pageopacity="0.0"
     inkscape:pagecheckerboard="0"
     inkscape:deskcolor="#d1d1d1"
     inkscape:document-units="mm"
     showgrid="false"
     inkscape:zoom="0.88907124"
     inkscape:cx="125.97416"
     inkscape:cy="575.88186"
     inkscape:window-width="2560"
     inkscape:window-height="1410"
     inkscape:window-x="1920"
     inkscape:window-y="0"
     inkscape:window-maximized="1"
     inkscape:current-layer="layer1" /><defs
     id="defs2" /><g
     inkscape:label="Layer 1"
     inkscape:groupmode="layer"
     id="layer1"
     transform="translate(-30.360942,-39.26895)"><path
       style="fill:#801f12;stroke:none;stroke-width:0.254987"
       d="m 66.41125,110.03365 c -3.644919,-1.32868 -7.387396,-1.527 -11.237137,-1.52751 -5.795042,-7.7e-4 -10.946502,0.37245 -15.54479,4.33355 -9.69254,8.34939 -11.229219,23.66017 -7.166739,35.12722 1.902907,5.37149 5.286051,10.54009 10.452836,13.23845 v 0.25459 l -11.237137,0.50916 v 0.25459 c 4.437647,1.47584 9.419785,1.31647 14.04642,1.57207 8.163779,0.45087 16.340073,0.67388 24.517389,0.72124 16.333435,0.0945 32.689838,0.4664 49.034778,0.24644 8.34076,-0.11227 16.6897,-0.66218 25.02816,-0.7546 4.5015,-0.0499 9.05969,-0.37601 13.53564,-0.85948 2.43361,-0.26298 5.04088,-0.41828 7.38101,-1.17236 1.22383,-0.39435 2.25611,-1.15506 3.38366,-1.749 4.98852,-2.62759 8.82881,-5.96215 11.53492,-10.98817 5.9046,-10.96679 3.87425,-28.29134 -7.487,-35.21862 -4.37712,-2.66907 -9.82866,-2.70878 -14.81259,-2.71438 -5.32921,-0.006 -9.64172,0.7416 -13.79103,4.32769 0.57795,-3.40865 1.51881,-6.96419 1.1868,-10.43801 -0.21018,-2.1986 -1.37783,-4.18794 -1.52825,-6.364646 -0.17597,-2.547127 0.55164,-5.06193 0.23342,-7.63757 -0.19384,-1.569265 -1.04505,-3.021167 -1.1615,-4.582541 -0.11162,-1.494163 0.82669,-2.910677 1.18015,-4.327955 0.63132,-2.530327 0.44003,-5.485811 -0.57514,-7.892154 -0.63362,-1.50231 -1.62709,-2.827683 -2.92549,-3.822858 -1.30223,-0.99823 -2.73139,-1.522168 -3.81628,-2.796368 l 0.25539,-0.254586 c 0.68342,0.108199 1.3625,0.211816 2.0569,0.211307 3.85204,-0.0025 3.51723,-3.797909 4.47213,-6.566019 0.44234,-1.282347 1.56885,-2.459551 1.61712,-3.843987 0.0363,-1.041511 -0.50285,-2.002825 -0.53682,-3.039753 -0.0309,-0.946549 0.31209,-1.857711 0.35448,-2.800442 0.0503,-1.109484 -0.201,-2.203438 -0.22934,-3.309613 -0.0371,-1.443246 0.56287,-2.927225 -0.12694,-4.296131 -1.71314,-3.399483 -7.50665,-4.459577 -10.9276,-4.590434 -5.35857,-0.204687 -10.37137,1.841927 -11.5178,7.613637 -0.54398,2.739342 0.45459,7.421171 -2.41548,9.163045 -1.97467,1.198335 -5.50926,0.506626 -7.77482,0.847262 -2.88003,0.433304 -5.21505,1.829452 -7.91707,2.752325 -1.9282,0.658613 -3.983313,0.622461 -5.87396,1.454193 -2.947444,1.296859 -4.705804,3.703456 -6.660815,6.117437 -1.393659,1.720491 -3.143844,3.099835 -4.48898,4.869969 -1.695782,2.231952 -2.929568,4.758969 -4.792379,6.873302 -1.390085,1.578176 -2.936212,3.112309 -4.74437,4.210083 -2.689762,1.633167 -5.703101,2.631142 -8.170164,4.639568 -6.913903,5.62889 -7.723488,15.061549 -2.811582,22.210059 m 76.10606,-63.391828 0.76617,5.346298 -4.33856,-0.947059 -2.81235,0.947059 c 0.3813,0.257895 0.76183,0.496696 1.08847,0.825366 1.84876,1.861021 0.12054,3.831769 -0.57769,5.793859 h 0.25539 c 1.15794,-2.426455 3.12698,-4.103665 5.61857,-5.091712 l 1.27695,4.327955 -0.2554,0.254587 -3.57544,0.254585 0.25538,-1.782099 -1.27695,2.545856 h 0.2554 l 2.80927,0.509171 -0.25538,1.527513 -3.06468,-0.50917 -0.25538,1.272927 c 1.31576,-0.270115 2.18434,-0.243383 3.32006,0.509172 l -2.80929,0.763757 v 0.254585 l 1.78773,1.7821 c -2.95179,0.845224 -5.63159,-0.347255 -8.16965,-1.846256 -1.0236,-0.60464 -2.16111,-1.261216 -2.76919,-2.322584 -0.75111,-1.310606 -0.55266,-3.034915 -0.55368,-4.487071 -2.56744,0.60464 -4.2313,-2.542547 -3.15509,-4.755914 0.7013,-1.442482 2.369,-1.269109 3.175,-0.01884 0.2914,0.452144 0.37952,0.950369 0.49086,1.46514 1.9356,-0.321541 2.44153,-1.414223 3.56166,-2.864088 0.52432,-0.678725 1.2246,-1.336574 1.30326,-2.239844 0.072,-0.827657 -0.40479,-1.580976 -0.77868,-2.27905 3.14256,-1.249761 5.54858,0.461309 8.68324,0.763757 m -15.06799,7.892154 0.76617,-0.509172 -0.51077,0.763757 h 1.02156 c -0.0559,-0.605914 -0.10113,-1.218956 -0.34018,-1.7877 -0.25539,-0.607951 -1.64676,-2.034903 -1.85005,-0.608205 -0.11875,0.834023 0.41578,1.543298 0.91327,2.14132 m -4.08622,1.527513 0.25538,1.018343 1.27695,-0.509171 c 0.72046,0.939929 1.5423,1.884952 1.84289,3.056555 0.89769,3.499024 -1.57856,7.822906 -2.35367,11.200239 -1.48866,-1.030054 -1.48662,-2.661438 -1.27694,-4.327956 -1.54051,0.994921 -2.73547,1.733219 -4.59701,1.272929 l 4.34161,-6.110055 c -2.66141,1.610254 -5.26255,2.871217 -8.42785,3.018876 -1.2039,0.05601 -2.40704,0.0031 -3.57544,-0.309831 -1.05374,-0.28208 -2.17108,-0.837841 -3.25469,-0.358711 -0.95234,0.42134 -1.42124,1.350831 -1.85311,2.232207 3.85664,-1.671609 7.18948,1.087081 7.54318,5.091712 0.28808,3.260987 -1.41613,6.51892 -4.22312,8.14674 1.29509,-2.965668 1.89704,-5.438458 1.27695,-8.655911 h -0.25538 c 0.11773,3.492151 -1.29458,6.456037 -4.34571,8.338188 -1.20468,0.74339 -2.66321,1.328174 -4.07807,0.863045 -5.31873,-1.748239 -5.511037,-9.143951 -3.57953,-13.274603 -2.835079,3.264551 -4.62536,7.954273 -2.829973,12.22011 0.791197,1.879351 2.636903,3.026259 3.534085,4.837126 0.885946,1.787956 0.5164,3.952442 0.317442,5.855469 h 0.255396 c 0.96971,-2.23017 2.01961,-4.6164 4.59752,-5.28927 0.75084,-0.196031 1.95935,-0.395626 2.51201,0.320268 0.64205,0.831477 0.28016,2.493412 0.15119,3.441489 -0.48115,3.535685 -1.99102,6.824678 -4.96222,8.910497 l -0.76617,-5.091716 h -0.25539 c -0.4339,1.244421 -1.168658,2.609763 -1.104044,3.956516 0.05743,1.2019 0.744464,2.330981 1.178624,3.426984 0.6446,1.627812 1.08336,3.337622 1.16202,5.091202 0.18745,4.19558 -1.74329,8.77684 -3.024322,12.72929 h -0.255386 l -1.276951,-3.30961 h -0.255386 c -0.276081,3.06775 -0.129739,5.84579 -0.02326,8.91049 0.0501,1.43943 -0.246448,3.03517 0.07481,4.44481 0.465329,2.04025 2.07198,3.68894 2.621575,5.73861 0.47987,1.79025 -0.115183,3.11155 -1.651603,4.07338 l 0.255396,-1.78211 h -0.255396 c -0.37057,1.33454 -0.766419,2.16958 -2.043109,2.80045 l -0.510782,-3.30961 h -0.255387 c 0.01583,1.36941 -0.10165,2.18256 -1.532337,2.54585 l -1.021564,-2.29127 c -0.752635,1.87986 -2.083978,3.09144 -3.830842,4.07337 l 0.889267,-3.05655 -0.870107,-4.07185 2.534741,-6.36464 c -1.305811,-1.89768 -0.895657,-4.90764 -1.292279,-7.12839 -0.72888,-4.07898 -1.86306,-8.0276 -1.421236,-12.22011 0.242616,-2.30451 1.552762,-3.95958 2.145523,-6.11007 0.363417,-1.318497 0.03475,-2.726353 0.135617,-4.073366 0.103176,-1.376552 0.611912,-2.697594 0.672694,-4.073376 0.07461,-1.688154 -0.815975,-3.204721 -1.096902,-4.837124 -0.583562,-3.392353 0.556245,-7.413787 3.665861,-9.165081 -0.498514,-2.117644 -1.184238,-4.428517 -0.889267,-6.619227 0.495715,-3.68309 3.974626,-7.373308 7.529392,-8.373829 1.6253,-0.457491 3.43627,-0.282082 5.10779,-0.282082 1.78134,-3.693018 6.6386,-3.815983 10.21559,-3.818783 1.37373,-7.64e-4 3.00873,0.20545 4.29488,-0.371696 1.07978,-0.484731 1.72235,-1.476851 2.34524,-2.428747 h 0.51078 m 17.79222,4.412733 0.17009,0.08503 -0.17009,-0.08503 m -18.303,0.933566 0.25539,0.254585 -0.25539,-0.254585 m 5.36317,4.073369 c 0.43111,1.712598 0.21121,3.02626 -1.02155,4.327955 l -0.25539,-0.254585 1.27694,-4.07337 m -29.880563,0.763757 -0.255396,0.509171 0.255396,-0.509171 m 16.089523,2.291271 c 3.50548,2.031338 8.92843,2.151757 9.418,7.382982 0.33891,3.620972 -3.80351,7.557628 -7.11949,8.22006 -1.57422,0.314414 -4.04767,0.302703 -4.84729,-1.408112 -0.80116,-1.71438 1.8623,-4.242924 2.4783,-5.793605 1.18169,-2.974069 0.46762,-5.395942 0.0705,-8.401325 m 20.43116,2.29127 c 1.55226,0.5163 3.21332,0.913199 4.46702,2.024465 2.95052,2.614594 2.95179,7.249071 1.15155,10.45023 h -0.25539 v -3.564198 h -0.25538 l -2.80929,4.327955 -0.20483,-5.091712 -2.09368,-8.14674 m -43.92698,1.272928 -0.176217,4.07337 -2.02141,3.564199 -2.399384,6.873811 -2.298505,-1.782099 0.255389,2.545856 -1.276946,-1.527514 h -0.255391 l 0.766169,3.818784 c -0.61651,-0.188138 -1.221272,-0.376277 -1.794622,-0.676943 -3.733283,-1.958272 0.49469,-5.586626 2.050012,-7.724381 h 0.255389 v 1.527513 c 2.315619,-3.582529 3.287116,-8.09175 6.895516,-10.692596 m 31.15751,13.747623 c 0.97124,-1.846 2.09496,-3.600604 2.73446,-5.600884 0.45944,-1.436372 0.43621,-3.191993 1.28563,-4.472559 1.67075,-2.518616 7.41497,-2.600083 8.84413,0.253057 2.12076,4.233505 -2.12739,9.009022 -5.96871,10.137855 -2.36413,0.694509 -4.57401,0.290227 -6.89551,-0.317469 M 95.014808,83.811321 c -3.113197,3.369696 -0.919402,7.028346 -0.510772,10.947182 h 0.255386 l -0.365464,-7.128143 0.62085,-3.819039 m 44.182382,8.655911 h 0.25539 l 0.25538,-3.818784 c 2.77992,2.752071 0.9899,6.089175 1.14721,9.419665 0.1328,2.806047 1.83013,5.253387 1.89857,8.146757 0.0999,4.22765 -2.33937,7.41302 -3.81195,11.20176 l 2.5539,-2.54585 c -0.70462,4.31166 -2.06559,8.71701 -1.74967,13.14196 0.19383,2.71083 3.42963,6.10929 1.71034,8.68468 -0.45076,0.67541 -1.09818,1.13087 -1.7484,1.59523 l 0.76617,-2.80044 h -0.25539 c -0.61472,1.60542 -1.3058,2.52804 -3.06467,2.80044 l 0.25539,-2.54585 h -0.51078 c -0.54858,2.04406 -1.706,3.25284 -3.83084,3.5642 0.99397,-2.2457 1.86613,-5.01916 -1.02156,-6.11006 l 3.83084,-5.09171 h -1.27694 v -4.83713 h 0.25538 l 0.51079,3.81879 h 0.25538 l 0.31643,-7.1284 -2.25049,-8.40132 0.65711,-6.11006 h 0.51078 l 1.78773,6.87381 h 0.25539 c 0.0531,-2.21591 0.25156,-4.4746 0.83921,-6.61922 0.8936,-3.25972 2.18281,-5.943058 1.71469,-9.419683 -0.60068,1.074099 -1.3362,3.011751 -2.66039,3.362564 -1.16433,0.308563 -2.06969,-0.986263 -2.55161,-1.84447 -1.17734,-2.097789 -1.91363,-5.48428 -1.17044,-7.8364 0.58739,-1.859494 3.03019,-3.071576 4.61463,-1.588614 1.10149,1.031071 1.31858,2.675185 1.51242,4.088135 m -22.21883,-3.564199 c -1.80561,2.115098 -4.1488,2.239336 -6.64013,1.272929 l 6.64013,-1.272929 m 10.98175,1.018344 v 0.254585 c -2.42212,0.719968 -4.3904,1.040236 -6.38474,-0.763757 l 6.38474,0.509172 M 77.903775,91.44889 v 0.254586 l -6.129347,0.509174 c 2.03239,-1.092685 3.896222,-1.341924 6.129347,-0.76376 m 34.222185,2.291274 v 0.254582 l -3.06468,0.763757 0.2554,-1.527514 2.80928,0.509175 m -29.114396,2.036678 c -3.483256,-1.064669 -6.908795,-1.474303 -10.208938,0.458255 -1.21923,0.713606 -2.257132,1.685355 -3.326703,2.596777 2.943364,-4.403064 9.117915,-6.944333 13.535641,-3.055032 m 42.394656,-1.782096 c -0.40505,3.483752 1.73051,5.717486 2.51252,8.910504 0.47885,1.95599 -0.28374,4.1439 -0.46942,6.11006 l -5.61856,-3.99216 -9.44941,-4.66376 5.36318,-3.163735 4.08572,-2.570043 3.57597,-0.630866 M 92.716361,116.90747 h 0.255396 c -0.423948,-4.98632 -1.492501,-10.37667 1.532336,-14.76598 l 2.553892,6.11006 h 0.255386 c 0.133572,-1.11101 0.263311,-2.21464 -0.04855,-3.31037 -0.986062,-3.46593 -3.457463,-5.553041 -2.760754,-9.41892 -1.904702,1.594465 -1.483303,3.404315 -1.98949,5.60088 -0.395338,1.71719 -1.022839,3.32388 -1.216159,5.09173 -0.40224,3.68512 0.467355,7.16759 1.417916,10.6926 m -7.661681,-9.16509 c -3.453887,-0.14384 -6.438368,-1.42441 -8.427852,-4.32796 l 4.597011,-0.25458 v -0.50917 l -6.129348,-2.29128 c 2.024472,-2.63751 5.043687,-3.096524 8.171441,-2.411438 1.02922,0.225562 2.570492,0.470474 3.025599,1.573598 0.398156,0.96539 0.02046,2.17188 -0.221931,3.12912 -0.428546,1.69248 -0.837935,3.35136 -1.01492,5.09171 m -11.747888,-4.83713 c 2.791917,2.18511 4.19707,5.23556 7.661683,6.61923 v 0.25458 c -3.504964,-0.71945 -7.376924,-2.93587 -7.661683,-6.87381 m 50.567115,22.91271 h -0.2554 c -0.36035,-1.48449 -1.32445,-3.67673 -0.89513,-5.19329 0.27838,-0.98347 1.36582,-1.53871 1.99255,-2.28287 1.27158,-1.50944 0.98836,-2.98935 -0.0759,-4.48936 0.39482,2.5904 -1.68455,2.92213 -3.83084,2.36255 -3.64339,-0.95012 -6.76477,-3.39872 -9.44942,-5.92675 1.64216,-1.67212 3.90771,-3.7251 6.38474,-3.87531 1.50322,-0.0911 2.87747,0.77445 4.08623,1.56113 2.9735,1.9356 8.10121,4.99114 8.31242,8.93239 0.16038,2.99366 -2.35878,2.67391 -3.99812,4.27194 -1.2131,1.1823 -1.72797,3.08481 -2.27118,4.63957 M 55.684893,110.03365 c 2.735475,0.70342 5.367775,1.35134 7.660662,3.09347 3.939126,2.99367 6.4233,7.50824 7.786824,12.18167 3.176023,10.88506 0.414497,24.49902 -9.828918,30.80486 2.319191,-3.11766 4.329872,-6.24066 5.624697,-9.92884 3.461038,-9.85781 2.077593,-22.15837 -4.77987,-30.29467 -1.912356,-2.26887 -4.211372,-4.03875 -6.718785,-5.6019 l 0.25539,-0.25459 m 8.172462,1.27293 c 2.713002,0.94756 5.261023,2.18969 7.389694,4.15381 10.846645,10.00776 9.316862,30.99708 -1.771126,40.14409 7.113363,-12.06125 8.583129,-27.64036 -0.536828,-39.20517 -1.510118,-1.91474 -3.357861,-3.43233 -5.33713,-4.83814 l 0.25539,-0.25459 m 101.900395,43.02496 c 1.66871,-2.17747 3.22838,-4.33712 4.31251,-6.87381 4.17126,-9.76183 2.90454,-21.82333 -4.38504,-29.78626 -1.6465,-1.79839 -3.37804,-3.43767 -5.54604,-4.58279 5.69671,-0.4025 10.36345,5.34808 12.54064,9.92884 4.93515,10.38378 3.21791,24.56954 -6.92207,31.31402 m 1.27695,-40.73369 c 2.28727,0.91497 4.4854,1.80195 6.35945,3.45371 6.72721,5.92904 8.25648,16.21251 6.36073,24.55071 -0.97942,4.30708 -2.83278,8.85652 -6.59084,11.45635 5.77155,-10.85019 6.82222,-24.57337 -1.30887,-34.62237 -1.46517,-1.81113 -3.17347,-3.25284 -5.07587,-4.58381 l 0.2554,-0.25459 m -56.95185,0.25459 7.1509,5.0917 c -2.75132,-1.12043 -5.55702,-2.47075 -7.1509,-5.0917 m -42.650043,2.54585 -0.255389,0.25458 0.255389,-0.25458 m 2.298505,1.27293 -0.255389,0.76376 1.532337,2.54585 -3.320063,-4.07336 2.043115,0.76375 m -6.384736,0 -0.255389,0.25459 0.255389,-0.25459 m 13.280252,0.50917 c 2.503583,1.26911 4.834778,2.06698 7.661683,2.03669 -1.906226,4.35214 -2.917824,8.22464 -2.043115,12.98386 h -1.021558 c -0.122076,-3.42138 -0.892586,-6.7623 -2.198903,-9.92884 -0.716878,-1.7378 -1.781086,-3.31572 -2.398107,-5.09171 m 36.009912,5.3463 -3.38621,4.5828 -0.70002,5.34604 c -1.67893,0 -4.63711,0.55652 -6.05912,-0.49034 -2.526058,-1.85975 -2.26351,-5.85674 -1.52059,-8.41914 0.25156,-0.86763 0.45434,-2.22839 1.29074,-2.75335 0.84789,-0.53182 2.10951,0.0433 2.96967,0.27343 2.43948,0.65225 4.93923,0.94451 7.40553,1.46056 m 18.89882,-0.76376 -0.23598,5.60088 -2.31792,5.3463 h -3.32006 l 2.83457,-5.3463 3.03939,-5.60088 m -19.66499,10.6926 c 0.37594,-3.26582 1.75325,-6.6569 4.60467,-8.53702 0.99168,-0.65378 2.91144,-1.53261 3.9542,-0.50154 1.09766,1.08504 0.107,3.11155 -0.46686,4.20143 -0.9291,1.76454 -2.28956,3.84323 -4.26347,4.54104 -1.19726,0.42313 -2.5784,0.29533 -3.82854,0.29609 m -60.271909,9.16508 c 2.648133,-4.47205 2.974266,-12.47596 -3.575452,-13.74763 4.935912,-0.92515 7.688244,4.0166 6.972387,8.40133 -0.367761,2.25308 -1.70779,3.89873 -3.396935,5.3463 m 104.709679,-0.25458 c 1.8245,-3.6472 3.00363,-8.79492 -1.06038,-11.56481 -0.69313,-0.47226 -1.45827,-0.69934 -2.25968,-0.9099 3.78487,-0.60921 6.32369,2.82158 6.25908,6.36465 -0.0442,2.4183 -1.23584,4.47179 -2.93902,6.11006 M 48.789377,136.51055 h -8.427852 l -1.276947,-3.05502 c 3.595627,0 8.271553,-1.09726 9.704799,3.05502 m -11.679982,-2.03261 c 1.872261,-0.51961 1.827823,2.88675 0.157576,3.22127 -1.746354,0.34981 -1.604612,-2.81978 -0.157576,-3.22127 m 49.733014,2.2872 -5.363181,-0.25459 v -1.52751 c 1.804837,0 5.25489,-0.7187 5.363181,1.7821 m 44.948541,0.25459 -29.62519,-0.25459 c 0.65355,-2.64744 4.28673,-1.74264 6.38475,-1.61713 5.75954,0.34496 11.59749,0.0896 17.36648,0.0896 2.06253,0 5.20381,-0.70926 5.87396,1.78211 m 21.19733,0.25458 -8.93864,-0.25458 v -1.52752 c 2.57228,0 7.79934,-1.11585 8.93864,1.7821 m -69.976716,1.7821 c 0.176219,3.63727 0.320258,7.17346 -0.887223,10.68648 -0.576669,1.67773 -1.727199,3.01328 -2.495155,4.59476 -0.979163,2.01607 -1.454698,4.14848 -1.725411,6.35854 l -8.683241,0.25458 v -0.25458 c 6.756327,-5.09731 11.36432,-13.1743 12.003304,-21.63978 h 1.787726 m 25.028166,0 c -0.13408,3.65483 -1.04122,7.61441 -2.57177,10.94719 -0.69569,1.51478 -1.77726,2.80756 -2.464,4.32794 -0.8599,1.9038 -1.01415,4.22664 -2.37053,5.85548 -1.085656,-1.91983 -2.944122,-2.61944 -4.547714,-4.01762 -1.512414,-1.31875 -2.820011,-3.56929 -3.387994,-5.49854 -0.56697,-1.92645 1.194962,-6.43465 2.759731,-7.6503 0.904595,-0.70265 2.115137,-0.84318 3.054973,-1.50358 1.101236,-0.77369 1.790024,-2.00588 3.179084,-2.32105 2.00378,-0.4547 4.30102,-0.1026 6.34822,-0.13952 m 42.90543,21.63978 v 0.25458 l -13.28025,-0.50917 -6.53185,-0.19883 -3.44316,-2.46056 -7.31766,-3.19556 -4.16005,-3.8193 c 1.13674,-2.59194 2.37078,-5.14492 3.71234,-7.63732 0.55803,-1.03693 1.03203,-2.42161 1.96267,-3.19097 1.26188,-1.04329 4.98086,-1.00637 6.33161,-0.14283 1.14135,0.72965 1.80051,1.90202 3.07285,2.51175 1.17454,0.56289 2.74927,0.59573 3.74452,1.47812 0.94035,0.83403 1.23379,2.30935 1.72465,3.41731 0.84227,1.9015 1.91184,3.69556 3.17883,5.34604 2.93493,3.82285 6.59901,6.29387 11.0055,8.14674 m -33.9668,-8.14674 v 0.25458 h -2.5539 l 2.5539,-0.25458 m -25.028168,0.50917 c -1.317809,1.09039 -2.576111,0.84777 -4.086228,0.25459 l 4.086228,-0.25459 m 26.560508,2.80044 v 0.25459 h -1.02156 l 1.02156,-0.25459 m -24.262002,1.7821 v 0.25459 l -3.575447,-0.50918 c 1.323167,-0.52393 2.292878,-0.28997 3.575447,0.25459 m 28.092842,1.01834 v 0.25459 l -4.08624,-2.03668 4.08624,1.78209 m -25.794337,1.52752 -3.064674,-0.50918 c 1.235068,-0.51222 2.069422,-0.38798 3.064674,0.50918 m 70.232097,0.50917 -0.25539,0.25458 0.25539,-0.25458"
       id="path1179"
       sodipodi:nodetypes="csccccccccsccscccccccccccccccssccccccccccccccccccccccccccccccccccccccccccccccccccccccccccscccccccccccccccccccccccccccccccccccccccccccccccccscccccccccccccccccccccccccccccccccccccccccccccccccccccccccccccccccccccccccccccccccccccccccccccccccccccccccccccccccccccccccccccccccccccccccccccccccccccccccsccccccccccccccccccccccccccccccccccccccccccccccccccccccccccccsccccccccccccscccccccccccccccccccccccccsccccccscccccccssccccccccccccccccssccccccccccccccccccccccccccccc" /></g></svg>
